name GIL02_free2EmgEnv.mot
datacolumns 51
datarows 10
range 0.11759260 0.12592593
endheader
                time	   rect_fem_l_emgRec	   rect_fem_l_emgEnv	   rect_fem_l_emgAve	   rect_fem_l_emgSDp	   rect_fem_l_emgSDm	   rect_fem_r_emgRec	   rect_fem_r_emgEnv	   rect_fem_r_emgAve	   rect_fem_r_emgSDp	   rect_fem_r_emgSDm	   med_hams_l_emgRec	   med_hams_l_emgEnv	   med_hams_l_emgAve	   med_hams_l_emgSDp	   med_hams_l_emgSDm	   med_hams_r_emgRec	   med_hams_r_emgEnv	   med_hams_r_emgAve	   med_hams_r_emgSDp	   med_hams_r_emgSDm	   lat_hams_l_emgRec	   lat_hams_l_emgEnv	   lat_hams_l_emgAve	   lat_hams_l_emgSDp	   lat_hams_l_emgSDm	   lat_hams_r_emgRec	   lat_hams_r_emgEnv	   lat_hams_r_emgAve	   lat_hams_r_emgSDp	   lat_hams_r_emgSDm	    tib_ant_l_emgRec	    tib_ant_l_emgEnv	    tib_ant_l_emgAve	    tib_ant_l_emgSDp	    tib_ant_l_emgSDm	    tib_ant_r_emgRec	    tib_ant_r_emgEnv	    tib_ant_r_emgAve	    tib_ant_r_emgSDp	    tib_ant_r_emgSDm	    gas_sol_l_emgRec	    gas_sol_l_emgEnv	    gas_sol_l_emgAve	    gas_sol_l_emgSDp	    gas_sol_l_emgSDm	    gas_sol_r_emgRec	    gas_sol_r_emgEnv	    gas_sol_r_emgAve	    gas_sol_r_emgSDp	    gas_sol_r_emgSDm	
          0.11759260	          0.05249520	          0.02179744	          0.11940872	          0.23129876	          0.00751868	          0.03558257	          0.43102673	          0.45225969	          0.62621281	          0.27830657	          0.03059931	          0.05498310	          0.17732382	          0.31065539	          0.04399225	          0.00400343	          0.05841857	          0.11542772	          0.15516862	          0.07568681	          0.01001408	          0.04096382	          0.07362207	          0.15868137	         -0.01143723	          0.04931175	          0.07324631	          0.33018291	          0.48140471	          0.17896111	          0.11648373	          0.47801132	          0.36160058	          0.43151820	          0.29168296	          0.24626775	          0.32188779	          0.22117148	          0.36501387	          0.07732910	          0.01065072	          0.01589514	          0.02255751	          0.07112216	         -0.02600714	          0.01308822	          0.01127439	          0.12364086	          0.22600625	          0.02127546	
          0.11851852	          0.04913632	          0.02271955	          0.11946377	          0.23157358	          0.00735396	          0.22795619	          0.42319054	          0.44778079	          0.62045416	          0.27510741	          0.01690679	          0.05479632	          0.17735144	          0.31019588	          0.04450701	          0.02018255	          0.05651407	          0.11422067	          0.15402452	          0.07441682	          0.01729518	          0.04075229	          0.07522064	          0.16148625	         -0.01104498	          0.04202001	          0.07001108	          0.32467937	          0.47464947	          0.17470928	          0.13446406	          0.48278127	          0.36574534	          0.43579113	          0.29569954	          0.02476966	          0.32079658	          0.21886949	          0.36188290	          0.07585609	          0.00172147	          0.01629748	          0.02187750	          0.06979187	         -0.02603687	          0.00282905	          0.01160788	          0.12685171	          0.22922671	          0.02447671	
          0.11944445	          0.00228241	          0.02369307	          0.11951276	          0.23182946	          0.00719605	          0.23747630	          0.41556124	          0.44328478	          0.61466514	          0.27190442	          0.02332517	          0.05464999	          0.17736781	          0.30971663	          0.04501899	          0.00176247	          0.05472867	          0.11304254	          0.15293629	          0.07314879	          0.02465170	          0.04053949	          0.07683457	          0.16430791	         -0.01063878	          0.01322896	          0.06694367	          0.31919253	          0.46788983	          0.17049523	          0.03873344	          0.48731215	          0.36990821	          0.44008852	          0.29972791	          0.13263174	          0.31963293	          0.21658772	          0.35874920	          0.07442625	          0.00698989	          0.01669051	          0.02122175	          0.06849098	         -0.02604748	          0.00746068	          0.01206364	          0.13010234	          0.23248792	          0.02771676	
          0.12037038	          0.01236676	          0.02471401	          0.11955567	          0.23206628	          0.00704507	          0.17645421	          0.40813882	          0.43877330	          0.60884821	          0.26869839	          0.03387782	          0.05454490	          0.17737268	          0.30921750	          0.04552786	          0.01613569	          0.05306082	          0.11189315	          0.15190309	          0.07188322	          0.01905864	          0.04032376	          0.07846349	          0.16714569	         -0.01021872	          0.00549011	          0.06404083	          0.31372377	          0.46112771	          0.16631983	          0.22314570	          0.49160049	          0.37408838	          0.44440951	          0.30376724	          0.23032236	          0.31838619	          0.21432610	          0.35561287	          0.07303932	          0.01380355	          0.01707197	          0.02059003	          0.06721930	         -0.02603924	          0.01115425	          0.01264576	          0.13339105	          0.23578827	          0.03099383	
          0.12129630	          0.01071596	          0.02577830	          0.11959250	          0.23228390	          0.00690109	          0.15073412	          0.40092284	          0.43424848	          0.60300635	          0.26549061	          0.01649709	          0.05448174	          0.17736600	          0.30869839	          0.04603362	          0.02554796	          0.05150871	          0.11077233	          0.15092402	          0.07062063	          0.01570976	          0.04010352	          0.08010706	          0.16999898	         -0.00978485	          0.06773912	          0.06129905	          0.30827457	          0.45436513	          0.16218400	          0.18215690	          0.49564336	          0.37828502	          0.44875328	          0.30781676	          0.30409973	          0.31704601	          0.21208461	          0.35247415	          0.07169506	          0.01862119	          0.01743976	          0.01998208	          0.06597664	         -0.02601248	          0.00633566	          0.01335820	          0.13671625	          0.23912627	          0.03430623	
          0.12222223	          0.00416917	          0.02688180	          0.11962318	          0.23248220	          0.00676417	          0.13522392	          0.39391239	          0.42971170	          0.59714174	          0.26228166	          0.00033037	          0.05446110	          0.17734759	          0.30815910	          0.04653607	          0.04412292	          0.05007030	          0.10967978	          0.14999811	          0.06936145	          0.01983699	          0.03987721	          0.08176494	          0.17286722	         -0.00933734	          0.08493836	          0.05871462	          0.30284619	          0.44760394	          0.15808845	          0.02871463	          0.49943839	          0.38249725	          0.45311893	          0.31187557	          0.20015426	          0.31560241	          0.20986304	          0.34933305	          0.07039303	          0.01443906	          0.01779191	          0.01939766	          0.06476277	         -0.02596746	          0.01064644	          0.01420477	          0.14007629	          0.24250034	          0.03765225	
          0.12314816	         -0.00030264	          0.02802035	          0.11964779	          0.23266116	          0.00663441	          0.03984151	          0.38710613	          0.42516515	          0.59125748	          0.25907281	          0.00028755	          0.05448348	          0.17731732	          0.30759954	          0.04703510	          0.00706005	          0.04874334	          0.10861527	          0.14912436	          0.06810619	          0.02660651	          0.03964337	          0.08343676	          0.17574977	         -0.00887624	          0.01975862	          0.05628362	          0.29744002	          0.44084610	          0.15403394	          0.14820381	          0.50298376	          0.38672426	          0.45750561	          0.31594292	          0.11228048	          0.31404582	          0.20766141	          0.34618983	          0.06913298	          0.01572992	          0.01812659	          0.01883649	          0.06357749	         -0.02590450	          0.02054447	          0.01518910	          0.14346947	          0.24590885	          0.04103009	
          0.12407408	          0.01712586	          0.02918970	          0.11966625	          0.23282061	          0.00651189	          0.15405821	          0.38050237	          0.42061052	          0.58535619	          0.25586484	          0.00939063	          0.05454927	          0.17727512	          0.30701974	          0.04753050	          0.00810500	          0.04752538	          0.10757855	          0.14830175	          0.06685535	          0.02327309	          0.03940059	          0.08512219	          0.17864604	         -0.00840166	          0.00200102	          0.05400195	          0.29205766	          0.43409388	          0.15002145	          0.09827159	          0.50627826	          0.39096522	          0.46191246	          0.32001799	          0.17129783	          0.31236715	          0.20547952	          0.34304453	          0.06791450	          0.02432291	          0.01844214	          0.01829836	          0.06242060	         -0.02582389	          0.00583744	          0.01631465	          0.14689395	          0.24935007	          0.04443783	
          0.12500001	          0.02497900	          0.03038561	          0.11967860	          0.23296052	          0.00639668	          0.22001599	          0.37409904	          0.41604972	          0.57944064	          0.25265880	          0.01437811	          0.05465874	          0.17722079	          0.30641942	          0.04802217	          0.01578333	          0.04641377	          0.10656935	          0.14752925	          0.06560945	          0.00568840	          0.03914758	          0.08682086	          0.18155540	         -0.00791367	          0.01390183	          0.05186537	          0.28670025	          0.42734896	          0.14605154	          0.12026523	          0.50932125	          0.39521939	          0.46633873	          0.32410004	          0.21254709	          0.31055783	          0.20331731	          0.33989738	          0.06673725	          0.02314178	          0.01873703	          0.01778299	          0.06129187	         -0.02572590	          0.00833999	          0.01758469	          0.15034805	          0.25282234	          0.04787377	
          0.12592593	          0.01807538	          0.03160381	          0.11968480	          0.23308078	          0.00628882	          0.00438194	          0.36789372	          0.41148475	          0.57351384	          0.24945566	          0.01090716	          0.05481205	          0.17715432	          0.30579863	          0.04851000	          0.02713986	          0.04540569	          0.10558736	          0.14680573	          0.06436899	          0.00465566	          0.03888308	          0.08853238	          0.18447721	         -0.00741245	          0.02042477	          0.04986946	          0.28136951	          0.42061378	          0.14212523	          0.14444713	          0.51211271	          0.39948568	          0.47078332	          0.32818804	          0.09051074	          0.30860986	          0.20117466	          0.33674850	          0.06560083	          0.01113980	          0.01900988	          0.01729014	          0.06019112	         -0.02561084	          0.00463888	          0.01900227	          0.15382974	          0.25632369	          0.05133579	
